<svg width="48" height="48" viewBox="0 0 48 48" fill="none" xmlns="http://www.w3.org/2000/svg">
<mask id="path-1-inside-1" fill="white">
<path d="M0 17.9091C0 15.7 1.79086 13.9091 4 13.9091H44C46.2091 13.9091 48 15.7 48 17.9091V30.0909C48 31.1955 47.1046 32.0909 46 32.0909H2C0.895431 32.0909 0 31.1955 0 30.0909V17.9091Z"/>
</mask>
<path d="M0 17.9091C0 15.7 1.79086 13.9091 4 13.9091H44C46.2091 13.9091 48 15.7 48 17.9091V30.0909C48 31.1955 47.1046 32.0909 46 32.0909H2C0.895431 32.0909 0 31.1955 0 30.0909V17.9091Z" stroke="#152C5B" stroke-width="6" mask="url(#path-1-inside-1)"/>
<path d="M2 25.7273C40.5604 25.7273 47.2792 25.7273 45.8186 25.7273" stroke="#152C5B" stroke-width="3" stroke-linecap="round"/>
<path d="M28 20.2727C21.8654 20.2727 20.7965 20.2727 21.0289 20.2727" stroke="#FF498B" stroke-width="3" stroke-linecap="round"/>
<path d="M33.205 46.272C33.9075 46.7111 34.8329 46.4975 35.272 45.795C35.7111 45.0925 35.4975 44.1671 34.795 43.728L33.205 46.272ZM32.5 34.0453C32.5 34.8738 33.1716 35.5453 34 35.5453C34.8284 35.5453 35.5 34.8738 35.5 34.0453L32.5 34.0453ZM34.795 43.728C33.0081 42.6112 32.3088 41.5461 32.0654 40.7089C31.8205 39.8667 31.963 39.0007 32.3611 38.1411C32.7636 37.2719 33.3882 36.5029 33.9308 35.9654C34.1999 35.6987 34.4234 35.5142 34.5537 35.4195C34.631 35.3634 34.6289 35.3727 34.5663 35.4031C34.5457 35.4131 34.5036 35.4326 34.4451 35.4531C34.3966 35.47 34.2784 35.5088 34.1178 35.5239C33.994 35.5355 33.5924 35.5601 33.1785 35.2919C32.654 34.952 32.5 34.4138 32.5 34.0453L35.5 34.0453C35.5 33.6655 35.3421 33.1191 34.8099 32.7743C34.3885 32.5012 33.9755 32.524 33.8368 32.537C33.5369 32.5653 33.3097 32.6783 33.2579 32.7034C33.082 32.7887 32.9159 32.9013 32.79 32.9927C32.5141 33.1933 32.1751 33.4817 31.8192 33.8343C31.1118 34.5353 30.2364 35.5902 29.6389 36.8804C29.037 38.1801 28.6795 39.8088 29.1846 41.5464C29.6912 43.2889 30.9919 44.8888 33.205 46.272L34.795 43.728Z" fill="#152C5B"/>
<path d="M13.795 46.2418C13.0925 46.6808 12.1671 46.4673 11.728 45.7648C11.2889 45.0623 11.5025 44.1368 12.205 43.6978L13.795 46.2418ZM14.5 34.0151C14.5 34.8436 13.8284 35.5151 13 35.5151C12.1716 35.5151 11.5 34.8436 11.5 34.0151L14.5 34.0151ZM12.205 43.6978C13.9919 42.581 14.6912 41.5159 14.9346 40.6786C15.1795 39.8364 15.037 38.9705 14.6389 38.1109C14.2364 37.2417 13.6118 36.4727 13.0692 35.9352C12.8001 35.6685 12.5766 35.484 12.4463 35.3893C12.369 35.3331 12.3711 35.3425 12.4337 35.3729C12.4543 35.3829 12.4964 35.4024 12.5549 35.4229C12.6034 35.4398 12.7216 35.4785 12.8822 35.4936C13.006 35.5053 13.4076 35.5299 13.8215 35.2617C14.346 34.9218 14.5 34.3836 14.5 34.0151L11.5 34.0151C11.5 33.6352 11.6579 33.0889 12.1901 32.7441C12.6115 32.471 13.0245 32.4938 13.1632 32.5068C13.4631 32.535 13.6903 32.6481 13.7421 32.6732C13.918 32.7585 14.0841 32.8711 14.21 32.9625C14.4859 33.1631 14.8249 33.4515 15.1808 33.8041C15.8882 34.505 16.7636 35.56 17.3611 36.8502C17.963 38.1499 18.3205 39.7785 17.8154 41.5161C17.3088 43.2587 16.0081 44.8586 13.795 46.2418L12.205 43.6978Z" fill="#152C5B"/>
<path d="M39.7606 46.2418C40.4631 46.6808 41.3885 46.4673 41.8276 45.7648C42.2666 45.0623 42.0531 44.1368 41.3506 43.6978L39.7606 46.2418ZM39.0556 34.0151C39.0556 34.8436 39.7271 35.5151 40.5556 35.5151C41.384 35.5151 42.0556 34.8436 42.0556 34.0151L39.0556 34.0151ZM41.3506 43.6978C39.5636 42.581 38.8643 41.5159 38.6209 40.6786C38.3761 39.8364 38.5186 38.9705 38.9167 38.1109C39.3192 37.2417 39.9438 36.4727 40.4863 35.9352C40.7555 35.6685 40.979 35.484 41.1093 35.3893C41.1866 35.3331 41.1845 35.3425 41.1218 35.3729C41.1012 35.3829 41.0591 35.4024 41.0007 35.4229C40.9522 35.4398 40.8339 35.4785 40.6734 35.4936C40.5495 35.5053 40.1479 35.5299 39.7341 35.2617C39.2096 34.9218 39.0556 34.3836 39.0556 34.0151L42.0556 34.0151C42.0556 33.6352 41.8977 33.0889 41.3655 32.7441C40.944 32.471 40.5311 32.4938 40.3923 32.5068C40.0925 32.535 39.8653 32.6481 39.8135 32.6732C39.6376 32.7585 39.4714 32.8711 39.3456 32.9625C39.0697 33.1631 38.7307 33.4515 38.3748 33.8041C37.6673 34.505 36.7919 35.56 36.1944 36.8502C35.5925 38.1499 35.235 39.7785 35.7402 41.5161C36.2468 43.2587 37.5475 44.8586 39.7606 46.2418L41.3506 43.6978Z" fill="#152C5B"/>
<path d="M6.795 46.2418C6.09249 46.6808 5.16707 46.4673 4.728 45.7648C4.28894 45.0623 4.5025 44.1368 5.205 43.6978L6.795 46.2418ZM7.5 34.0151C7.5 34.8436 6.82843 35.5151 6 35.5151C5.17157 35.5151 4.5 34.8436 4.5 34.0151L7.5 34.0151ZM5.205 43.6978C6.99192 42.581 7.69122 41.5159 7.93463 40.6786C8.17948 39.8364 8.03696 38.9705 7.63888 38.1109C7.23636 37.2417 6.61177 36.4727 6.06925 35.9352C5.8001 35.6685 5.57659 35.484 5.44626 35.3893C5.36899 35.3331 5.37108 35.3425 5.43372 35.3729C5.45434 35.3829 5.49644 35.4024 5.55487 35.4229C5.60338 35.4398 5.72164 35.4785 5.8822 35.4936C6.00601 35.5053 6.40765 35.5299 6.82148 35.2617C7.346 34.9218 7.5 34.3836 7.5 34.0151L4.5 34.0151C4.5 33.6352 4.65791 33.0889 5.19005 32.7441C5.61152 32.471 6.0245 32.4938 6.16321 32.5068C6.46306 32.535 6.69027 32.6481 6.74206 32.6732C6.91798 32.7585 7.08414 32.8711 7.20999 32.9625C7.4859 33.1631 7.8249 33.4515 8.18075 33.8041C8.88823 34.505 9.76364 35.56 10.3611 36.8502C10.963 38.1499 11.3205 39.7785 10.8154 41.5161C10.3088 43.2587 9.00808 44.8586 6.795 46.2418L5.205 43.6978Z" fill="#152C5B"/>
</svg>
