<svg width="48" height="50" viewBox="0 0 48 50" fill="none" xmlns="http://www.w3.org/2000/svg">
<path d="M40 22.9435C40 23.387 40 21.4107 40 10.1946C40 9.6195 39.7524 9.06807 39.3205 8.68836L36.5608 6.26222C35.7575 5.55609 34.5409 5.60682 33.7993 6.37736L31 9.28571" stroke="#FF498B" stroke-width="3" stroke-linecap="round"/>
<path d="M1.5 27C1.5 25.6193 2.61929 24.5 4 24.5H44C45.3807 24.5 46.5 25.6193 46.5 27V28.434C46.5 29.8147 45.3807 30.934 44 30.934H4C2.61929 30.934 1.5 29.8147 1.5 28.434V27Z" stroke="#152C5B" stroke-width="3"/>
<path d="M5.5 32.0472H42.5V40.6415C42.5 42.5745 40.933 44.1415 39 44.1415H9C7.067 44.1415 5.5 42.5745 5.5 40.6415V32.0472Z" stroke="#152C5B" stroke-width="3"/>
<path d="M11 44.6981C11 47.1784 11 47.6106 11 47.5166" stroke="#152C5B" stroke-width="3" stroke-linecap="round"/>
<path d="M38 45C38 47.4803 38 47.9125 38 47.8185" stroke="#152C5B" stroke-width="3" stroke-linecap="round"/>
</svg>
