<svg width="48" height="52" viewBox="0 0 48 52" fill="none" xmlns="http://www.w3.org/2000/svg">
<path d="M16 17.5H20C21.3807 17.5 22.5 18.6193 22.5 20V24C22.5 25.3807 21.3807 26.5 20 26.5H16C14.6193 26.5 13.5 25.3807 13.5 24V20C13.5 18.6193 14.6193 17.5 16 17.5Z" stroke="#FF498B" stroke-width="3"/>
<path d="M30 17.5H34C35.3807 17.5 36.5 18.6193 36.5 20V24C36.5 25.3807 35.3807 26.5 34 26.5H30C28.6193 26.5 27.5 25.3807 27.5 24V20C27.5 18.6193 28.6193 17.5 30 17.5Z" stroke="#FF498B" stroke-width="3"/>
<path d="M8.5 10C8.5 5.30558 12.3056 1.5 17 1.5H32C36.6944 1.5 40.5 5.30558 40.5 10V26.5H8.5V10Z" stroke="#152C5B" stroke-width="3"/>
<mask id="path-4-inside-1" fill="white">
<path d="M0 29C0 26.7909 1.79086 25 4 25H44C46.2091 25 48 26.7909 48 29V40C48 41.1046 47.1046 42 46 42H2C0.895431 42 0 41.1046 0 40V29Z"/>
</mask>
<path d="M0 29C0 26.7909 1.79086 25 4 25H44C46.2091 25 48 26.7909 48 29V40C48 41.1046 47.1046 42 46 42H2C0.895431 42 0 41.1046 0 40V29Z" stroke="#152C5B" stroke-width="6" mask="url(#path-4-inside-1)"/>
<path d="M5 42C5 49.011 5 50.2326 5 49.967" stroke="#152C5B" stroke-width="3" stroke-linecap="round"/>
<path d="M43 42C43 49.011 43 50.2326 43 49.967" stroke="#152C5B" stroke-width="3" stroke-linecap="round"/>
</svg>
