<svg width="48" height="46" viewBox="0 0 48 46" fill="none" xmlns="http://www.w3.org/2000/svg">
<path d="M38.5 40.5C38.5 40.6226 38.4305 40.9616 37.7966 41.4768C37.1747 41.9822 36.1836 42.5039 34.8261 42.9706C32.1256 43.8989 28.298 44.5 24 44.5C19.702 44.5 15.8744 43.8989 13.1739 42.9706C11.8164 42.5039 10.8253 41.9822 10.2034 41.4768C9.56946 40.9616 9.49999 40.6226 9.49999 40.5C9.49999 40.3774 9.56946 40.0384 10.2034 39.5232C10.8253 39.0178 11.8164 38.4961 13.1739 38.0294C15.8744 37.1011 19.702 36.5 24 36.5C28.298 36.5 32.1256 37.1011 34.8261 38.0294C36.1836 38.4961 37.1747 39.0178 37.7966 39.5232C38.4305 40.0384 38.5 40.3774 38.5 40.5Z" stroke="#152C5B" stroke-width="3"/>
<path d="M36.5 14.4286C36.5 15.8286 36.1411 18.2671 35.4406 21.2081C34.7471 24.12 33.743 27.4239 32.5062 30.5257C31.2634 33.6424 29.8152 36.4801 28.2589 38.5109C26.6521 40.6073 25.1999 41.5 24 41.5C22.8001 41.5 21.3479 40.6073 19.7411 38.5109C18.1848 36.4801 16.7366 33.6424 15.4938 30.5257C14.257 27.4239 13.2529 24.12 12.5594 21.2081C11.8589 18.2671 11.5 15.8286 11.5 14.4286C11.5 9.21539 16.7975 4.5 24 4.5C31.2025 4.5 36.5 9.21539 36.5 14.4286Z" fill="white" stroke="#152C5B" stroke-width="3"/>
<path d="M28.5 17C28.5 19.4853 26.4853 21.5 24 21.5C21.5147 21.5 19.5 19.4853 19.5 17C19.5 14.5147 21.5147 12.5 24 12.5C26.4853 12.5 28.5 14.5147 28.5 17Z" stroke="#FF498B" stroke-width="3"/>
</svg>
