<svg width="48" height="47" viewBox="0 0 48 47" fill="none" xmlns="http://www.w3.org/2000/svg">
<path d="M6.23607 20.882C6.65955 20.035 7.52521 19.5 8.47214 19.5H39.5279C40.4748 19.5 41.3405 20.035 41.7639 20.882L43.7639 24.882C44.5951 26.5442 43.3863 28.5 41.5279 28.5H6.47214C4.61368 28.5 3.40494 26.5442 4.23607 24.882L6.23607 20.882Z" stroke="#152C5B" stroke-width="3"/>
<path d="M17 12C17 17.2582 17 18.1744 17 17.9753" stroke="#152C5B" stroke-width="3" stroke-linecap="round"/>
<path d="M34 12C34 17.2582 34 18.1744 34 17.9753" stroke="#152C5B" stroke-width="3" stroke-linecap="round"/>
<mask id="path-4-inside-1" fill="white">
<path d="M9.5 47C11.433 47 13 45.433 13 43.5L13 28C13 27.4477 12.5523 27 12 27L7 27C6.44772 27 6 27.4477 6 28L6 43.5C6 45.433 7.567 47 9.5 47Z"/>
</mask>
<path d="M9.5 47C11.433 47 13 45.433 13 43.5L13 28C13 27.4477 12.5523 27 12 27L7 27C6.44772 27 6 27.4477 6 28L6 43.5C6 45.433 7.567 47 9.5 47Z" stroke="#152C5B" stroke-width="6" mask="url(#path-4-inside-1)"/>
<mask id="path-5-inside-2" fill="white">
<path d="M17 12C19.2091 12 21 10.2091 21 8L21 3C21 2.44772 20.5523 2 20 2L14 2C13.4477 2 13 2.44772 13 3L13 8C13 10.2091 14.7909 12 17 12Z"/>
</mask>
<path d="M17 12C19.2091 12 21 10.2091 21 8L21 3C21 2.44772 20.5523 2 20 2L14 2C13.4477 2 13 2.44772 13 3L13 8C13 10.2091 14.7909 12 17 12Z" stroke="#FF498B" stroke-width="6" mask="url(#path-5-inside-2)"/>
<mask id="path-6-inside-3" fill="white">
<path d="M17 12C19.2091 12 21 10.2091 21 8L21 3C21 2.44772 20.5523 2 20 2L14 2C13.4477 2 13 2.44772 13 3L13 8C13 10.2091 14.7909 12 17 12Z"/>
</mask>
<path d="M17 12C19.2091 12 21 10.2091 21 8L21 3C21 2.44772 20.5523 2 20 2L14 2C13.4477 2 13 2.44772 13 3L13 8C13 10.2091 14.7909 12 17 12Z" stroke="#FF498B" stroke-width="6" mask="url(#path-6-inside-3)"/>
<mask id="path-7-inside-4" fill="white">
<path d="M34 12C36.2091 12 38 10.2091 38 8L38 3C38 2.44772 37.5523 2 37 2L31 2C30.4477 2 30 2.44772 30 3L30 8C30 10.2091 31.7909 12 34 12Z"/>
</mask>
<path d="M34 12C36.2091 12 38 10.2091 38 8L38 3C38 2.44772 37.5523 2 37 2L31 2C30.4477 2 30 2.44772 30 3L30 8C30 10.2091 31.7909 12 34 12Z" stroke="#FF498B" stroke-width="6" mask="url(#path-7-inside-4)"/>
<mask id="path-8-inside-5" fill="white">
<path d="M39.5 47C41.433 47 43 45.433 43 43.5L43 28C43 27.4477 42.5523 27 42 27L37 27C36.4477 27 36 27.4477 36 28L36 43.5C36 45.433 37.567 47 39.5 47Z"/>
</mask>
<path d="M39.5 47C41.433 47 43 45.433 43 43.5L43 28C43 27.4477 42.5523 27 42 27L37 27C36.4477 27 36 27.4477 36 28L36 43.5C36 45.433 37.567 47 39.5 47Z" stroke="#152C5B" stroke-width="6" mask="url(#path-8-inside-5)"/>
</svg>
