<svg width="48" height="48" viewBox="0 0 48 48" fill="none" xmlns="http://www.w3.org/2000/svg">
<mask id="path-1-inside-1" fill="white">
<path fill-rule="evenodd" clip-rule="evenodd" d="M20.1768 11C19.4505 11 18.7812 11.3938 18.4285 12.0287L16.7778 15H8C3.58172 15 0 18.5817 0 23V37C0 41.4183 3.58172 45 8 45H40C44.4183 45 48 41.4183 48 37V23C48 18.5817 44.4183 15 40 15H33.2222L31.5715 12.0287C31.2188 11.3938 30.5495 11 29.8232 11H20.1768Z"/>
</mask>
<path d="M18.4285 12.0287L15.806 10.5718V10.5718L18.4285 12.0287ZM16.7778 15V18H18.543L19.4002 16.4569L16.7778 15ZM33.2222 15L30.5997 16.4569L31.457 18H33.2222V15ZM31.5715 12.0287L34.194 10.5718V10.5718L31.5715 12.0287ZM21.051 13.4856C20.8746 13.8031 20.54 14 20.1768 14V8C18.361 8 16.6879 8.98446 15.806 10.5718L21.051 13.4856ZM19.4002 16.4569L21.051 13.4856L15.806 10.5718L14.1553 13.5431L19.4002 16.4569ZM8 18H16.7778V12H8V18ZM3 23C3 20.2386 5.23858 18 8 18V12C1.92487 12 -3 16.9249 -3 23H3ZM3 37V23H-3V37H3ZM8 42C5.23858 42 3 39.7614 3 37H-3C-3 43.0751 1.92487 48 8 48V42ZM40 42H8V48H40V42ZM45 37C45 39.7614 42.7614 42 40 42V48C46.0751 48 51 43.0751 51 37H45ZM45 23V37H51V23H45ZM40 18C42.7614 18 45 20.2386 45 23H51C51 16.9249 46.0751 12 40 12V18ZM33.2222 18H40V12H33.2222V18ZM28.949 13.4856L30.5997 16.4569L35.8447 13.5431L34.194 10.5718L28.949 13.4856ZM29.8232 14C29.46 14 29.1254 13.8031 28.949 13.4856L34.194 10.5718C33.3121 8.98446 31.639 8 29.8232 8V14ZM20.1768 14H29.8232V8H20.1768V14Z" fill="#152C5B" mask="url(#path-1-inside-1)"/>
<circle cx="24" cy="29" r="6.5" stroke="#FF498B" stroke-width="3"/>
<path d="M41 21C33.989 21 32.7674 21 33.033 21" stroke="#152C5B" stroke-width="3" stroke-linecap="round"/>
</svg>
