<svg width="48" height="48" viewBox="0 0 48 48" fill="none" xmlns="http://www.w3.org/2000/svg">
<path d="M4.5 13C4.5 11.067 6.067 9.5 8 9.5H40C41.933 9.5 43.5 11.067 43.5 13V30C43.5 31.933 41.933 33.5 40 33.5H8C6.067 33.5 4.5 31.933 4.5 30V13Z" stroke="#152C5B" stroke-width="3"/>
<path d="M20 34C20 40.1346 20 41.2035 20 40.9711" stroke="#152C5B" stroke-width="3" stroke-linecap="round"/>
<path d="M14 43C31.5274 43 34.5815 43 33.9175 43" stroke="#152C5B" stroke-width="3" stroke-linecap="round"/>
<path d="M30 34C30 40.1346 30 41.2035 30 40.9711" stroke="#152C5B" stroke-width="2" stroke-linecap="round"/>
<path d="M21.6667 15.2038L30.0328 21L21.6667 26.7962L21.6667 15.2038ZM30.6255 20.5894C30.6256 20.5892 30.6258 20.5891 30.626 20.589L30.9107 21L30.626 20.589L30.6255 20.5894Z" stroke="#FF498B" stroke-width="3"/>
</svg>
