<svg width="48" height="48" viewBox="0 0 48 48" fill="none" xmlns="http://www.w3.org/2000/svg">
<path d="M14 33.3582C16.3306 30.7039 19.9437 29 24 29C28.0563 29 31.6694 30.7039 34 33.3582" stroke="#152C5B" stroke-width="3" stroke-linecap="round"/>
<path d="M9 24C12.4959 21.5639 17.9156 20 24 20C30.0844 20 35.5041 21.5639 39 24" stroke="#152C5B" stroke-width="3" stroke-linecap="round"/>
<path d="M5 15C9.31162 12.5639 15.9958 11 23.5 11C31.0041 11 37.6884 12.5639 42 15" stroke="#152C5B" stroke-width="3" stroke-linecap="round"/>
<path d="M28.5 40C28.5 42.4853 26.4853 44.5 24 44.5C21.5147 44.5 19.5 42.4853 19.5 40C19.5 37.5147 21.5147 35.5 24 35.5C26.4853 35.5 28.5 37.5147 28.5 40Z" stroke="#FF498B" stroke-width="3"/>
</svg>
